<svg id="_x31__x2C_5" enable-background="new 0 0 24 24" height="512" viewBox="0 0 24 24" width="512" xmlns="http://www.w3.org/2000/svg"><path d="m13.861 3.609h-6.144-4.578c-1.417 0-2.564 1.147-2.564 2.564v9.081 2.573c0 1.417 1.147 2.564 2.564 2.564h6.144 4.578c1.417 0 2.564-1.147 2.564-2.564v-9.081-2.573c0-1.417-1.147-2.564-2.564-2.564z" fill="#2196f3"/><path d="m11.875 2.125h-.99c-.297-1.035-1.251-1.8-2.385-1.8s-2.088.765-2.385 1.8h-.99c-.369 0-.675.306-.675.675v1.8c0 .864.711 1.575 1.575 1.575h4.95c.864 0 1.575-.711 1.575-1.575v-1.8c0-.369-.306-.675-.675-.675z" fill="#1976d2"/><path d="m20.698 23.35c-.133 0-.265-.039-.38-.117l-2.818-1.918-2.819 1.918c-.232.157-.537.156-.767-.005-.23-.16-.336-.447-.267-.719l.878-3.465-2.638-2.253c-.21-.179-.289-.468-.201-.729s.327-.443.602-.458l3.361-.19 1.218-3.321c.098-.266.351-.443.634-.443s.536.177.634.443l1.218 3.321 3.361.19c.275.016.513.197.602.458.088.261.008.55-.201.729l-2.638 2.253.878 3.465c.069.272-.037.558-.267.719-.119.081-.254.122-.39.122z" fill="#ffc107"/><path d="m21.054 24c-.147 0-.294-.043-.422-.13l-3.132-2.132-3.132 2.132c-.257.176-.595.174-.852-.006-.255-.179-.374-.496-.297-.799l.975-3.849-2.932-2.504c-.233-.199-.321-.52-.223-.81.098-.291.362-.492.668-.51l3.735-.211 1.354-3.69c.108-.295.39-.491.704-.491s.596.196.704.492l1.354 3.69 3.735.211c.306.018.57.219.668.51.098.29.01.61-.223.81l-2.932 2.504.975 3.849c.077.303-.042.62-.297.799-.13.09-.28.135-.43.135zm-3.554-3.919c.147 0 .295.043.422.13l1.919 1.307-.604-2.384c-.07-.277.023-.569.24-.755l1.865-1.593-2.362-.134c-.299-.018-.559-.21-.662-.491l-.818-2.232-.819 2.232c-.103.281-.363.474-.662.491l-2.362.134 1.865 1.593c.217.186.31.478.24.755l-.604 2.384 1.919-1.307c.128-.087.276-.13.423-.13z"/><path d="m11.61 21h-8.86c-1.516 0-2.75-1.233-2.75-2.75v-12.5c0-1.517 1.234-2.75 2.75-2.75h1.88c.414 0 .75.336.75.75s-.336.75-.75.75h-1.88c-.689 0-1.25.561-1.25 1.25v12.5c0 .689.561 1.25 1.25 1.25h8.86c.414 0 .75.336.75.75s-.336.75-.75.75z"/><path d="m16.25 9.78c-.414 0-.75-.336-.75-.75v-3.28c0-.689-.561-1.25-1.25-1.25h-1.87c-.414 0-.75-.336-.75-.75s.336-.75.75-.75h1.87c1.516 0 2.75 1.233 2.75 2.75v3.28c0 .414-.336.75-.75.75z"/><path d="m11.25 6.5h-5.5c-.965 0-1.75-.785-1.75-1.75v-2c0-.414.336-.75.75-.75h1.104c.327-1.153 1.39-2 2.646-2s2.319.847 2.646 2h1.104c.414 0 .75.336.75.75v2c0 .965-.785 1.75-1.75 1.75zm-5.75-3v1.25c0 .138.112.25.25.25h5.5c.138 0 .25-.112.25-.25v-1.25h-1c-.414 0-.75-.336-.75-.75 0-.689-.561-1.25-1.25-1.25s-1.25.561-1.25 1.25c0 .414-.336.75-.75.75z"/><path d="m13.25 9.5h-9.5c-.414 0-.75-.336-.75-.75s.336-.75.75-.75h9.5c.414 0 .75.336.75.75s-.336.75-.75.75z"/><path d="m13.25 12.5h-9.5c-.414 0-.75-.336-.75-.75s.336-.75.75-.75h9.5c.414 0 .75.336.75.75s-.336.75-.75.75z"/><path d="m9.1 15.5h-5.35c-.414 0-.75-.336-.75-.75s.336-.75.75-.75h5.35c.414 0 .75.336.75.75s-.336.75-.75.75z"/></svg>